<svg xmlns="http://www.w3.org/2000/svg" width="64" height="64" fill="none">
 <g>
  <title>Layer 1</title>
  <path fill-rule="evenodd" clip-rule="evenodd" d="m37.1467,2.77663c-2.84216,-2.87392 -7.45016,-2.87409 -10.29251,-0.0003l-2.42727,2.45411c-1.36489,1.38 -3.21596,2.15526 -5.14611,2.15526l-4.26309,0c-4.0198,0 -7.27841,3.29528 -7.27813,7.36008l0.00034,4.31016c0.00019,1.95203 -0.76663,3.8242 -2.1317,5.20454l-2.96623,2.99939c-2.62221,2.65154 -2.85355,6.87274 -0.53708,9.80102l4.03974,5.10679c1.03209,1.30468 1.59446,2.92565 1.59458,4.59647l0.00025,2.32609c0.00038,4.06439 3.25881,7.35849 7.27813,7.35849l4.26319,0c1.93015,0 3.78122,0.7752 5.14611,2.15534l2.42696,2.45364c2.84244,2.87412 7.45072,2.87361 10.29282,-0.00051l2.42512,-2.45266c1.36495,-1.38014 3.21631,-2.15584 5.14671,-2.15584l4.26328,0c4.01945,0 7.27813,-3.29461 7.27813,-7.35947l0,-2.32414c0,-1.67149 0.56237,-3.29296 1.59489,-4.59795l4.04034,-5.10588c2.31687,-2.92838 2.0859,-7.15029 -0.53712,-9.80206l-2.96607,-2.99899c-1.36539,-1.3802 -2.13201,-3.25224 -2.13201,-5.20427l0,-4.3108c0,-4.06456 -3.25865,-7.35947 -7.27813,-7.35947l-4.26237,0c-1.93025,0 -3.78148,-0.7754 -5.1464,-2.15554l-2.42633,-2.4535l-0.00004,0z" fill="#62B543" id="svg_1" stroke="null"/>
  <text fill="#ffffff" stroke="null" x="17" y="45.37502" id="svg_2" font-size="40" font-family="Noto Sans JP" text-anchor="start" xml:space="preserve" font-weight="bold" filter="url(#svg_2_blur)" stroke-width="2">A</text>
 </g>
 <defs>
  <filter id="svg_2_blur">
   <feGaussianBlur in="SourceGraphic" stdDeviation="0"/>
  </filter>
 </defs>
</svg>